<svg xmlns="http://www.w3.org/2000/svg" width="1080" height="1350" viewBox="0 0 1080 1350" fill="none">
  <!-- Sky fill removed — theme gradient is painted in CSS underneath this overlay -->
  <defs>
    <linearGradient id="arch" x1="540" y1="220" x2="540" y2="980" gradientUnits="userSpaceOnUse">
      <stop stop-color="#FFFFFF" stop-opacity="0.28"/>
      <stop offset="1" stop-color="#FFFFFF" stop-opacity="0.02"/>
    </linearGradient>
    <pattern id="grid" width="48" height="48" patternUnits="userSpaceOnUse">
      <path d="M48 0H0V48" stroke="rgba(255,255,255,0.08)" stroke-width="1"/>
    </pattern>
    <filter id="blur" x="-20%" y="-20%" width="140%" height="140%">
      <feGaussianBlur stdDeviation="18"/>
    </filter>
  </defs>
  <rect width="1080" height="1350" fill="url(#grid)"/>
  <g filter="url(#blur)" opacity="0.9">
    <path d="M120 860C220 620 320 540 540 500C760 460 880 560 980 820C900 700 760 640 540 680C320 720 200 780 120 860Z" fill="url(#arch)"/>
    <path d="M200 980C300 740 420 640 540 620C660 600 820 680 920 900C820 780 700 720 540 760C380 800 260 880 200 980Z" fill="#FFFFFF" fill-opacity="0.18"/>
  </g>
  <circle cx="860" cy="210" r="54" stroke="rgba(255,255,255,0.35)" stroke-width="2" fill="none"/>
  <circle cx="860" cy="210" r="34" stroke="rgba(255,255,255,0.28)" stroke-width="2" fill="none"/>
  <circle cx="860" cy="210" r="16" stroke="rgba(255,255,255,0.4)" stroke-width="2" fill="none"/>
  <path d="M140 240L168 288H112L140 240Z" fill="#FFFFFF" fill-opacity="0.55"/>
  <path d="M980 420L1004 460H956L980 420Z" fill="#FFFFFF" fill-opacity="0.45"/>
  <path d="M90 520L112 556H68L90 520Z" fill="#FFFFFF" fill-opacity="0.4"/>
  <g fill="#FFFFFF" fill-opacity="0.45">
    <rect x="240" y="300" width="18" height="4" rx="1"/>
    <rect x="247" y="293" width="4" height="18" rx="1"/>
  </g>
  <g fill="#FFFFFF" fill-opacity="0.35">
    <rect x="940" y="560" width="16" height="3" rx="1"/>
    <rect x="946.5" y="553.5" width="3" height="16" rx="1"/>
  </g>
  <ellipse cx="180" cy="400" rx="48" ry="28" fill="#FFFFFF" fill-opacity="0.14"/>
  <ellipse cx="980" cy="300" rx="40" ry="22" fill="#FFFFFF" fill-opacity="0.12"/>
</svg>
